<svg width="48" height="49" viewBox="0 0 48 49" fill="none" xmlns="http://www.w3.org/2000/svg">
<path d="M15 24.5H27M15 16.5H21" stroke="#250B47" stroke-width="2" stroke-linecap="round" stroke-linejoin="round"/>
<path d="M17 40.5C19.1008 42.2394 21.629 43.3476 24.527 43.5376C26.8104 43.6874 29.1942 43.6872 31.473 43.5376C32.2576 43.4862 33.113 43.3014 33.8496 43.002C34.669 42.669 35.079 42.5024 35.2874 42.5276C35.4956 42.5528 35.7978 42.7728 36.4022 43.2126C37.4678 43.988 38.8102 44.545 40.801 44.4972C41.8076 44.473 42.311 44.4608 42.5362 44.0818C42.7616 43.7026 42.481 43.1778 41.9196 42.1282C41.1412 40.6724 40.648 39.0058 41.3954 37.6704C42.6826 35.763 43.7758 33.5042 43.9356 31.0646C44.0214 29.7538 44.0214 28.3962 43.9356 27.0854C43.8292 25.4598 43.4346 23.9146 42.8024 22.5" stroke="#250B47" stroke-width="2" stroke-linecap="round" stroke-linejoin="round"/>
<path d="M24.69 35.4736C31.8012 35.0052 37.4656 29.3138 37.9316 22.1688C38.0228 20.7706 38.0228 19.3226 37.9316 17.9244C37.4656 10.7794 31.8012 5.08802 24.69 4.6197C22.264 4.45994 19.7311 4.46026 17.31 4.6197C10.1989 5.08802 4.5345 10.7794 4.0684 17.9244C3.9772 19.3226 3.9772 20.7706 4.0684 22.1688C4.23816 24.7712 5.39984 27.1806 6.76744 29.2152C7.56152 30.6394 7.03746 32.4172 6.21036 33.97C5.614 35.0896 5.31582 35.6494 5.55524 36.0538C5.79464 36.4582 6.32944 36.4712 7.39902 36.497C9.51424 36.548 10.9406 35.9538 12.0728 35.1268C12.7149 34.6576 13.036 34.423 13.2572 34.3962C13.4785 34.3692 13.914 34.5468 14.7848 34.9022C15.5675 35.2216 16.4762 35.4186 17.31 35.4736C19.7311 35.633 22.264 35.6332 24.69 35.4736Z" stroke="#250B47" stroke-width="2" stroke-linejoin="round"/>
</svg>
