<svg width="44" height="45" viewBox="0 0 44 45" fill="none" xmlns="http://www.w3.org/2000/svg">
<path d="M1.32959 9.77462C1.32959 7.77466 2.95087 6.15338 4.95083 6.15338H39.3526C41.3526 6.15338 42.9739 7.77467 42.9739 9.77462V32.4074C42.9739 34.4073 41.3526 36.0286 39.3526 36.0286H4.95083C2.95087 36.0286 1.32959 34.4073 1.32959 32.4074V9.77462Z" stroke="black" stroke-width="1.35797"/>
<path d="M13.5513 39.6498C13.3013 39.6498 13.0986 39.4472 13.0986 39.1972C13.0986 38.9472 13.3013 38.7445 13.5513 38.7445" stroke="black" stroke-width="1.35797"/>
<path d="M13.5518 39.6498C13.8018 39.6498 14.0044 39.4472 14.0044 39.1972C14.0044 38.9472 13.8018 38.7445 13.5518 38.7445" stroke="black" stroke-width="1.35797"/>
<path d="M17.1724 39.1972H29.8467" stroke="black" stroke-width="1.35797" stroke-linecap="round"/>
<path d="M16.9463 18.8793L12.1518 21.2765C11.8999 21.4025 11.7407 21.66 11.7407 21.9417V27.3435C11.7407 27.6251 11.8999 27.8826 12.1518 28.0086L16.6137 30.2396C16.823 30.3442 17.0695 30.3442 17.2788 30.2396L21.8192 27.9694C22.0286 27.8647 22.275 27.8647 22.4844 27.9694L27.0248 30.2396C27.2341 30.3442 27.4805 30.3442 27.6899 30.2396L32.1518 28.0086C32.4037 27.8826 32.5629 27.6251 32.5629 27.3435V21.9417C32.5629 21.66 32.4037 21.4025 32.1518 21.2765L27.3573 18.8793M27.3573 18.8889V13.0275C27.3573 12.7458 27.1982 12.4883 26.9462 12.3624L22.4844 10.1314C22.275 10.0268 22.0286 10.0268 21.8192 10.1314L17.3573 12.3624C17.1054 12.4883 16.9463 12.7458 16.9463 13.0275V18.8889" stroke="black" stroke-width="1.35797" stroke-linecap="round"/>
<path d="M16.9463 18.8795L22.1518 21.4822L27.3574 18.8795" stroke="black" stroke-width="1.35797" stroke-linecap="round"/>
<path d="M11.8682 21.5459L16.9464 24.0848L22.1519 21.482L27.3575 24.0848L32.4356 21.5457" stroke="black" stroke-width="1.35797" stroke-linecap="round"/>
<path d="M27.2286 12.632L22.1504 15.1711L17.0723 12.632" stroke="black" stroke-width="1.35797" stroke-linecap="round"/>
<path d="M16.9463 24.0853V30.2288" stroke="black" stroke-width="1.35797" stroke-linecap="round"/>
<path d="M22.1514 15.1735V27.8052" stroke="black" stroke-width="1.35797" stroke-linecap="round"/>
<path d="M27.3569 24.0819V30.229" stroke="black" stroke-width="1.35797" stroke-linecap="round"/>
</svg>
