<svg width="44" height="44" viewBox="0 0 44 44" fill="none" xmlns="http://www.w3.org/2000/svg">
<path d="M33.5027 25.6694H36.4671C38.4671 25.6694 40.0884 24.0481 40.0884 22.0482V5.75259C40.0884 3.75263 38.4671 2.13135 36.4671 2.13135H7.49722C5.49726 2.13135 3.87598 3.75263 3.87598 5.75259V22.0482C3.87598 24.0481 5.49726 25.6694 7.49722 25.6694H10.6879" stroke="black" stroke-width="1.35797" stroke-linecap="round" stroke-linejoin="round"/>
<path d="M35.562 25.6696L37.3726 29.2908" stroke="black" stroke-width="1.35797" stroke-linecap="round" stroke-linejoin="round"/>
<path d="M8.58008 25.6696L6.76946 29.2908" stroke="black" stroke-width="1.35797" stroke-linecap="round" stroke-linejoin="round"/>
<path d="M9.98584 36.0051V36.689C9.98584 39.1252 11.5881 41.2713 13.9238 41.9637C15.9493 42.5641 18.1413 42.076 19.7207 40.6729L20.8219 39.6947C21.4844 39.1062 22.4819 39.1047 23.1461 39.6913L24.2765 40.6896C25.8538 42.0827 28.0377 42.5644 30.0547 41.9642C32.3829 41.2714 33.9791 39.131 33.9791 36.7019V36.008C33.9791 32.6822 31.4396 29.9069 28.1269 29.6124L26.1874 29.44C23.1461 29.2819 23.1897 29.2903 22.0366 29.2903L21.9283 29.2904C20.7753 29.2904 20.8189 29.2821 17.7775 29.4402L15.8381 29.6126C12.5254 29.9071 9.98584 32.6824 9.98584 36.0082" stroke="black" stroke-width="1.35797"/>
<path d="M27.6548 33.9814L25.8651 33.8223C24.603 33.7101 23.3374 33.6528 22.0716 33.6503C20.8058 33.6528 19.5401 33.7101 18.278 33.8222L16.4884 33.9813" stroke="black" stroke-width="1.35797" stroke-linecap="round"/>
<path d="M24.7684 22.973C23.2792 21.4838 20.8647 21.4838 19.3755 22.973" stroke="black" stroke-width="1.35797" stroke-linecap="round"/>
<path d="M28.3627 19.3779C24.8879 15.9031 19.2541 15.9031 15.7793 19.3779" stroke="black" stroke-width="1.35797" stroke-linecap="round"/>
</svg>
