<svg width="45" height="45" viewBox="0 0 45 45" fill="none" xmlns="http://www.w3.org/2000/svg">
<path d="M40.7178 42.9424V36.3413C40.7177 34.1133 39.9271 31.9576 38.4869 30.2576C37.0466 28.5577 35.05 27.4238 32.8523 27.0577L26.5994 26.0129L26.5994 11.8945C26.5994 10.6463 26.1036 9.44932 25.221 8.56675C24.3384 7.68418 23.1414 7.18835 21.8933 7.18835C20.6451 7.18835 19.4481 7.68418 18.5655 8.56675C17.683 9.44932 17.1871 10.6463 17.1871 11.8945L17.1871 33.0721L13.5038 31.2242C12.8155 30.8804 12.0588 30.6955 11.2896 30.6832C10.5203 30.6709 9.75811 30.8315 9.05919 31.1531C8.36028 31.4747 7.74249 31.9491 7.2514 32.5414C6.76032 33.1336 6.40848 33.8286 6.22184 34.5749C5.98231 35.5291 6.02205 36.532 6.33633 37.4643C6.6506 38.3965 7.22616 39.2188 7.99448 39.8333L11.8043 42.9424" stroke="black" stroke-width="1.35797" stroke-linecap="round" stroke-linejoin="round"/>
<path d="M35.4521 7.04534L40.718 1.77948" stroke="black" stroke-width="1.35797" stroke-linecap="round" stroke-linejoin="round"/>
<path d="M35.2504 16.8751L40.7176 22.3422" stroke="black" stroke-width="1.35797" stroke-linecap="round" stroke-linejoin="round"/>
<path d="M9.93023 7.18841L4.52139 1.77956" stroke="black" stroke-width="1.35797" stroke-linecap="round" stroke-linejoin="round"/>
<path d="M9.95953 16.9045L4.52152 22.3425" stroke="black" stroke-width="1.35797" stroke-linecap="round" stroke-linejoin="round"/>
<path d="M9.25461 1.77905H4.52197V6.51169" stroke="black" stroke-width="1.35797" stroke-linecap="round" stroke-linejoin="round"/>
<path d="M4.52197 17.6099L4.52197 22.3425L9.25461 22.3425" stroke="black" stroke-width="1.35797" stroke-linecap="round" stroke-linejoin="round"/>
<path d="M35.9851 22.3425L40.7178 22.3425L40.7178 17.6099" stroke="black" stroke-width="1.35797" stroke-linecap="round" stroke-linejoin="round"/>
<path d="M40.7178 6.51169L40.7178 1.77905L35.9851 1.77905" stroke="black" stroke-width="1.35797" stroke-linecap="round" stroke-linejoin="round"/>
</svg>
