<svg width="44" height="44" viewBox="0 0 44 44" fill="none" xmlns="http://www.w3.org/2000/svg">
<path d="M14.6907 13.9911L2.43007 20.9498C1.86335 21.2715 1.51318 21.8729 1.51318 22.5245V30.5204C1.51318 31.172 1.86335 31.7734 2.43007 32.0951L20.9417 42.6017C21.496 42.9163 22.1749 42.9163 22.7292 42.6017L41.2409 32.0951C41.8076 31.7734 42.1578 31.172 42.1578 30.5204V22.5245C42.1578 21.8729 41.8076 21.2715 41.2409 20.9498L36.4315 18.2202" stroke="black" stroke-width="1.35797" stroke-linecap="round" stroke-linejoin="round"/>
<path d="M1.51318 27.0476L20.9417 38.0746C21.496 38.3892 22.1749 38.3892 22.7292 38.0746L42.1578 27.0476" stroke="black" stroke-width="1.35797" stroke-linejoin="round"/>
<path d="M42.1577 21.9224L21.8354 33.4566L1.51313 21.9224" stroke="black" stroke-width="1.35797" stroke-linejoin="round"/>
<path d="M21.8359 42.6558V33.4567" stroke="black" stroke-width="1.35797" stroke-linejoin="round"/>
<path d="M32.7559 3.67871V16.9164C32.7559 17.9889 31.3213 18.9273 29.1777 19.4413" stroke="black" stroke-width="1.35797" stroke-linecap="round"/>
<ellipse cx="25.4012" cy="3.67902" rx="7.35429" ry="2.94172" stroke="black" stroke-width="1.35797"/>
<path d="M27.3957 22.8395C27.7946 23.5176 28.0585 24.3717 27.5113 24.937C26.4466 26.0369 23.7764 26.8169 20.6507 26.8169C17.525 26.8169 14.8547 26.0369 13.7901 24.937C13.2429 24.3717 13.5067 23.5176 13.9056 22.8395L20.6507 11.3729L27.3957 22.8395Z" stroke="black" stroke-width="1.35797" stroke-linejoin="round"/>
<path d="M18.0469 3.67871V11.1498" stroke="black" stroke-width="1.35797" stroke-linecap="round"/>
</svg>
