<svg width="44" height="45" viewBox="0 0 44 45" fill="none" xmlns="http://www.w3.org/2000/svg">
<path d="M4.81787 14.8381C4.81787 17.5691 7.03179 19.783 9.76279 19.783H34.0268C36.7578 19.783 38.9717 17.5691 38.9717 14.8381C38.9717 12.1071 36.7578 9.89319 34.0268 9.89319H9.76279C7.03179 9.89319 4.81787 12.1071 4.81787 14.8381Z" stroke="black" stroke-width="1.35797" stroke-linecap="round" stroke-linejoin="round"/>
<path d="M10.5416 16.6508C11.7064 16.6508 12.6506 15.7065 12.6506 14.5417C12.6506 13.377 11.7064 12.4327 10.5416 12.4327C9.37685 12.4327 8.43262 13.377 8.43262 14.5417C8.43262 15.7065 9.37685 16.6508 10.5416 16.6508Z" stroke="black" stroke-width="1.35797" stroke-linecap="round" stroke-linejoin="round"/>
<path d="M12.0342 16.0354L13.436 17.4372" stroke="black" stroke-width="1.35797" stroke-linecap="round" stroke-linejoin="round"/>
<path d="M17.1338 12.5074V17.1682" stroke="black" stroke-width="1.35797" stroke-linecap="round" stroke-linejoin="round"/>
<path d="M21.8941 33.3135C24.3387 33.3135 26.3204 31.3317 26.3204 28.8871C26.3204 26.4425 24.3387 24.4608 21.8941 24.4608C19.4495 24.4608 17.4678 26.4425 17.4678 28.8871C17.4678 31.3317 19.4495 33.3135 21.8941 33.3135Z" stroke="black" stroke-width="1.35797" stroke-linecap="round" stroke-linejoin="round"/>
<path d="M29.6671 43.0018C29.414 41.1195 28.4866 39.393 27.0569 38.1427C25.6273 36.8925 23.7926 36.2034 21.8934 36.2034C19.9942 36.2034 18.1595 36.8925 16.7298 38.1427C15.3002 39.393 14.3727 41.1195 14.1196 43.0018" stroke="black" stroke-width="1.35797" stroke-linecap="round" stroke-linejoin="round"/>
<path d="M42.4429 36.648L40.8218 36.2402" stroke="black" stroke-width="1.35797" stroke-linecap="round"/>
<path d="M37.0181 35.2358C36.3919 35.0783 35.7654 34.9313 35.1387 34.7949" stroke="black" stroke-width="1.35797" stroke-linecap="round"/>
<path d="M31.3574 34.0502C30.2257 33.8591 29.0935 33.7024 27.9609 33.58" stroke="black" stroke-width="1.35797" stroke-linecap="round"/>
<path d="M12.4414 34.0502C13.573 33.8591 14.7052 33.7024 15.8377 33.58" stroke="black" stroke-width="1.35797" stroke-linecap="round"/>
<path d="M42.4429 2.00314L40.8193 2.4115" stroke="black" stroke-width="1.35797" stroke-linecap="round"/>
<path d="M36.958 3.43494C36.3317 3.59246 35.7052 3.73943 35.0785 3.87585" stroke="black" stroke-width="1.35797" stroke-linecap="round"/>
<path d="M31.3481 4.60352C25.0484 5.66716 18.7318 5.66716 12.4321 4.60351" stroke="black" stroke-width="1.35797" stroke-linecap="round"/>
<path d="M6.77097 3.41799C7.3972 3.5755 8.02369 3.72247 8.65039 3.85889" stroke="black" stroke-width="1.35797" stroke-linecap="round"/>
<path d="M1.34568 2.00583L2.9668 2.41357" stroke="black" stroke-width="1.35797" stroke-linecap="round"/>
<path d="M6.83105 35.2189C7.45732 35.0614 8.08384 34.9144 8.71057 34.778" stroke="black" stroke-width="1.35797" stroke-linecap="round"/>
<path d="M1.3457 36.6503L2.96927 36.2419" stroke="black" stroke-width="1.35797" stroke-linecap="round"/>
</svg>
