<svg width="675" height="841" viewBox="0 0 675 841" fill="none" xmlns="http://www.w3.org/2000/svg">
<g opacity="0.5">
<path d="M191.058 343.863C175.138 333.882 166.986 321.894 174.084 304.139C198.169 244.229 272.733 194.386 260.586 128.654C254.294 94.9063 222.215 65.2325 175.727 42.4685C-44.1916 -64.8811 -257.098 -19.9091 -322.016 11.178C-388.549 43.0223 -356.071 105.337 -323.339 145.746C-283.041 195.545 -231.444 245.215 -227.471 299.942C-223.287 357.727 -196.202 489.361 -155.273 546.608C-126.395 586.997 -52.9711 643.405 22.9958 650.274C98.9626 657.143 175.513 616.349 234.177 591.349C292.841 566.348 529.256 684.634 557.903 646.243C596.422 594.619 518.129 530.38 461.783 489.232C404.645 447.519 338.015 410.04 265.323 376.694C238.379 364.403 209.515 355.469 191.058 343.863Z" stroke="#1D0FBF" stroke-opacity="0.2" stroke-width="3"/>
<path d="M-331.233 1.69609C-402.086 35.5993 -367.386 102.041 -332.617 145.089C-289.802 198.142 -234.66 251.08 -230.579 309.414C-226.171 370.98 -211.626 497.833 -167.973 558.845C-137.216 601.94 -59.1247 656.79 21.9004 664.12C94.312 670.671 167.005 634.717 224.436 612.326C283.613 589.271 497.872 690.759 529.972 654.581C574.283 604.483 514.801 541.547 470.576 498.301C426.234 454.879 369.367 415.251 303.947 379.611C279.7 366.415 253.285 356.308 235.565 343.949C220.338 333.458 211.783 321.272 215.83 303.986C221.995 277.942 234.387 253.61 244.97 229.444C254.044 208.836 261.631 188.257 262.016 166.452C262.225 155.88 260.127 144.934 255.777 133.293C243.784 101.665 209.939 72.9045 161.843 49.3411C90.3579 14.4661 19.7298 -7.44111 -46.4271 -19.2555C-170.386 -41.4717 -281.079 -22.3388 -331.233 1.69609Z" stroke="#1D0FBF" stroke-opacity="0.2" stroke-width="3"/>
<path d="M-340.609 -7.77951C-415.774 28.1815 -379.002 98.7349 -342.054 144.433C-296.582 200.753 -238.192 256.929 -233.712 318.896C-229.08 384.242 -227.073 506.397 -180.846 571.158C-148.199 616.878 -65.318 670.263 20.4641 678.028C89.4691 684.274 158.322 653.077 214.359 633.361C274.193 612.264 466.453 697.056 501.577 662.97C551.816 614.411 510.815 552.832 478.842 507.502C446.972 462.427 400.309 420.61 342.153 382.677C320.732 368.672 296.763 357.391 279.648 344.187C265.128 333.105 256.038 320.626 257.024 303.889C258.55 278.089 263.338 253.98 265.985 230.252C268.292 210.186 269.201 190.487 264.241 169.599C261.815 159.694 257.112 149.255 250.464 138.064C233.203 108.676 197.024 80.6948 147.616 56.3587C78.2722 22.2562 9.65941 -2.42274 -56.3451 -18.247C-170.978 -45.8603 -283.542 -35.1184 -340.609 -7.77951Z" stroke="#1D0FBF" stroke-opacity="0.2" stroke-width="3"/>
<path d="M-349.992 -17.2357C-429.478 20.8636 -390.623 95.4475 -351.658 143.864C-303.53 203.45 -241.765 262.958 -237.165 328.449C-232.162 397.587 -242.806 514.956 -194.009 583.465C-159.475 631.808 -71.954 683.719 18.8717 691.944C84.3303 697.873 149.626 671.536 204.287 654.412C264.763 635.352 435.087 703.297 473.364 671.395C529.669 624.385 506.962 564.229 487.251 516.654C467.982 469.939 431.362 425.921 380.472 385.615C361.727 370.788 340.346 358.348 323.822 344.378C310.007 332.705 300.368 320.015 298.443 303.839C295.337 278.283 292.532 254.395 287.269 231.023C282.802 211.58 277.203 192.692 266.76 172.708C261.863 163.402 254.53 153.629 245.616 142.728C223.237 115.59 184.729 88.3872 133.863 63.2654C66.4822 30.0828 -0.00170432 2.80796 -65.9448 -17.3607C-171.712 -49.5062 -286.021 -47.8774 -349.992 -17.2357Z" stroke="#1D0FBF" stroke-opacity="0.2" stroke-width="3"/>
<path d="M-359.37 -26.676C-443.163 13.4816 -402.238 92.1779 -361.096 143.245C-310.472 206.165 -245.302 268.844 -240.304 337.968C-235.077 410.887 -258.224 523.569 -206.696 595.76C-170.287 646.809 -77.966 697.18 17.7446 705.934C79.6669 711.545 141.548 690.159 194.575 675.437C255.829 658.506 404.246 709.694 445.57 679.718C508.23 634.282 503.341 575.588 496.019 525.78C489.013 477.559 462.58 431.271 418.929 388.673C403.001 373.036 384.057 359.423 368.12 344.688C354.995 332.505 344.821 319.523 339.858 303.813C331.847 278.392 321.868 254.926 308.557 231.896C297.632 213.02 285.241 194.914 269.147 175.981C261.781 167.273 251.835 158.086 240.483 147.622C213.298 122.679 172.008 96.2935 119.829 70.3984C54.4159 38.0535 -10.0176 8.58681 -75.8626 -16.1672C-172.668 -52.6691 -288.337 -60.6879 -359.37 -26.676Z" stroke="#1D0FBF" stroke-opacity="0.2" stroke-width="3"/>
<path d="M-368.733 -36.1022C-456.844 6.11585 -413.844 88.9283 -370.52 142.649C-317.233 208.838 -248.665 274.773 -243.544 347.425C-238.092 424.128 -273.866 532.039 -219.628 608.077C-181.326 661.752 -84.3527 710.655 16.4141 719.87C74.8145 725.163 133.295 708.725 184.684 696.484C246.872 681.694 373.446 716.053 417.501 688.135C486.651 644.363 499.138 587.005 504.483 534.989C509.581 485.247 493.464 436.7 457.065 391.646C443.789 375.267 427.436 360.414 412.243 344.845C399.804 332.151 388.949 318.862 381.225 303.725C368.3 278.518 351.34 255.242 329.814 232.701C312.421 214.472 293.535 197.174 271.674 179.114C261.987 171.017 249.589 162.347 235.653 152.306C203.967 129.501 159.717 104.08 105.939 77.3028C42.4809 45.7932 -20.4087 14.4171 -85.8058 -15.2994C-174.106 -55.3771 -290.795 -73.4179 -368.733 -36.1022Z" stroke="#1D0FBF" stroke-opacity="0.2" stroke-width="3"/>
<path d="M-377.912 -45.4212C-470.367 -1.13813 -425.264 85.7182 -379.89 142.084C-323.924 211.55 -252.082 280.733 -246.56 357.029C-240.735 437.536 -289.139 540.69 -232.307 620.489C-192.099 676.796 -90.3118 724.33 15.2653 733.9C70.311 738.889 125.252 727.463 175.037 717.62C238.164 705.049 343.094 722.599 389.909 696.655C465.7 654.635 495.439 598.433 513.447 544.203C530.511 492.841 524.846 442.043 495.801 394.704C485.183 377.499 471.255 361.471 456.786 345.149C445.044 331.862 433.489 318.346 423.005 303.779C405.017 278.77 381.351 255.789 351.49 233.559C327.64 215.894 302.123 199.308 274.61 182.295C262.453 174.795 247.6 166.64 231.064 157.102C195.041 136.282 147.513 111.877 92.4102 84.2424C30.8844 53.5646 -30.9624 20.4787 -95.3233 -14.3115C-176.055 -57.8862 -293.176 -86.1385 -377.912 -45.4212Z" stroke="#1D0FBF" stroke-opacity="0.2" stroke-width="3"/>
<path d="M-387.188 -54.8281C-484.02 -8.3964 -436.674 82.6031 -389.095 141.631C-330.439 214.378 -255.163 286.827 -249.53 366.745C-243.476 451.048 -304.388 549.545 -244.805 633.122C-202.844 692.133 -96.1952 738.14 14.4893 748.171C66.045 752.844 117.72 746.617 165.937 739.01C230.134 728.832 313.308 729.48 362.905 705.428C445.323 665.319 492.203 610.094 522.862 553.727C551.751 500.728 556.522 447.757 534.838 398.049C526.878 380.018 515.372 362.815 501.624 345.737C490.416 331.924 478.174 318.099 464.941 304.021C441.859 279.37 411.394 256.347 373.296 234.682C343.144 217.512 310.978 201.718 277.647 185.818C263.164 178.927 245.867 171.207 226.581 162.158C186.23 143.243 135.4 119.932 78.9477 91.5186C19.3707 61.5092 -42.0696 26.9011 -104.782 -13.1543C-178.397 -60.2684 -295.508 -98.8556 -387.188 -54.8281Z" stroke="#1D0FBF" stroke-opacity="0.2" stroke-width="3"/>
<path d="M280.844 188.952C195.472 156.604 37.1181 101.481 -114.183 -12.0699C-181.445 -62.6298 -297.671 -111.556 -396.453 -64.2294C-497.659 -15.7278 -448.209 79.4055 -398.565 141.085C-337.357 217.102 -258.638 292.82 -252.602 376.389C-246.173 464.506 -319.736 558.255 -257.539 645.601C-213.66 707.25 -102.15 751.811 13.5106 762.292C129.171 772.773 246.117 752.032 335.452 713.94C424.801 675.768 488.409 621.398 532.017 562.918C620.43 444.181 588.814 323.92 395.133 235.406C358.674 218.729 319.853 203.726 280.844 188.952Z" stroke="#1D0FBF" stroke-opacity="0.2" stroke-width="3"/>
</g>
</svg>
