<svg width="30" height="30" viewBox="0 0 30 30" fill="none" xmlns="http://www.w3.org/2000/svg">
<path d="M19.7147 14.0574C19.4648 14.3075 19.3244 14.6465 19.3244 15.0001C19.3244 15.3536 19.4648 15.6927 19.7147 15.9427L22.8827 19.1121C23.1328 19.362 23.4719 19.5025 23.8254 19.5025C24.179 19.5025 24.518 19.362 24.7681 19.1121L27.9374 15.9427C28.1874 15.6927 28.3278 15.3536 28.3278 15.0001C28.3278 14.6465 28.1874 14.3075 27.9374 14.0574L24.7681 10.8881C24.518 10.6381 24.179 10.4977 23.8254 10.4977C23.4719 10.4977 23.1328 10.6381 22.8827 10.8881L19.7147 14.0574ZM2.06275 14.0574C1.81278 14.3075 1.67236 14.6465 1.67236 15.0001C1.67236 15.3536 1.81278 15.6927 2.06275 15.9427L5.23208 19.1121C5.48212 19.362 5.82119 19.5025 6.17475 19.5025C6.5283 19.5025 6.86737 19.362 7.11741 19.1121L10.2867 15.9427C10.5367 15.6927 10.6771 15.3536 10.6771 15.0001C10.6771 14.6465 10.5367 14.3075 10.2867 14.0574L7.11741 10.8881C6.86737 10.6381 6.5283 10.4977 6.17475 10.4977C5.82119 10.4977 5.48212 10.6381 5.23208 10.8881L2.06275 14.0574ZM10.8881 22.8827C10.7641 23.0066 10.6658 23.1536 10.5987 23.3155C10.5316 23.4774 10.497 23.6509 10.497 23.8261C10.497 24.0013 10.5316 24.1748 10.5987 24.3367C10.6658 24.4985 10.7641 24.6456 10.8881 24.7694L14.0574 27.9374C14.3075 28.1874 14.6465 28.3278 15.0001 28.3278C15.3536 28.3278 15.6927 28.1874 15.9427 27.9374L19.1121 24.7694C19.236 24.6456 19.3344 24.4985 19.4015 24.3367C19.4686 24.1748 19.5031 24.0013 19.5031 23.8261C19.5031 23.6509 19.4686 23.4774 19.4015 23.3155C19.3344 23.1536 19.236 23.0066 19.1121 22.8827L15.9427 19.7147C15.6927 19.4648 15.3536 19.3244 15.0001 19.3244C14.6465 19.3244 14.3075 19.4648 14.0574 19.7147L10.8881 22.8827ZM10.8881 5.23208C10.6381 5.48212 10.4977 5.82119 10.4977 6.17475C10.4977 6.5283 10.6381 6.86737 10.8881 7.11741L14.0574 10.2854C14.3075 10.5354 14.6465 10.6758 15.0001 10.6758C15.3536 10.6758 15.6927 10.5354 15.9427 10.2854L19.1121 7.11741C19.362 6.86737 19.5025 6.5283 19.5025 6.17475C19.5025 5.82119 19.362 5.48212 19.1121 5.23208L15.9427 2.06275C15.6927 1.81278 15.3536 1.67236 15.0001 1.67236C14.6465 1.67236 14.3075 1.81278 14.0574 2.06275L10.8881 5.23208Z" stroke="white" stroke-width="2" stroke-linecap="round" stroke-linejoin="round"/>
</svg>
