<svg width="100" height="100" viewBox="0 0 100 100" fill="none" xmlns="http://www.w3.org/2000/svg">
<path d="M81.6192 58.5166C86.2216 58.5166 89.9526 54.7857 89.9526 50.1833C89.9526 45.5809 86.2216 41.85 81.6192 41.85C77.0168 41.85 73.2859 45.5809 73.2859 50.1833C73.2859 54.7857 77.0168 58.5166 81.6192 58.5166Z" stroke="#010101" stroke-width="2" stroke-linecap="round" stroke-linejoin="round"/>
<path d="M96.2026 73.0999C96.2026 69.2322 94.6661 65.5229 91.9312 62.788C89.1963 60.0531 85.487 58.5166 81.6192 58.5166C77.7515 58.5166 74.0422 60.0531 71.3072 62.788C68.5723 65.5229 67.0359 69.2322 67.0359 73.0999V79.3499H73.2859L75.3692 96.0166H87.8692L89.9526 79.3499H96.2026V73.0999Z" stroke="#010101" stroke-width="2" stroke-linecap="round" stroke-linejoin="round"/>
<path d="M23.5134 27.0106C26.8236 27.0106 29.5071 24.3272 29.5071 21.017C29.5071 17.7068 26.8236 15.0233 23.5134 15.0233C20.2032 15.0233 17.5198 17.7068 17.5198 21.017C17.5198 24.3272 20.2032 27.0106 23.5134 27.0106Z" stroke="#010101" stroke-width="2" stroke-linecap="round" stroke-linejoin="round"/>
<path d="M23.5134 60.3439C26.8236 60.3439 29.5071 57.6604 29.5071 54.3502C29.5071 51.04 26.8236 48.3566 23.5134 48.3566C20.2032 48.3566 17.5198 51.04 17.5198 54.3502C17.5198 57.6604 20.2032 60.3439 23.5134 60.3439Z" stroke="#010101" stroke-width="2" stroke-linecap="round" stroke-linejoin="round"/>
<path d="M64.6555 27.0106C67.9657 27.0106 70.6492 24.3272 70.6492 21.017C70.6492 17.7068 67.9657 15.0233 64.6555 15.0233C61.3453 15.0233 58.6619 17.7068 58.6619 21.017C58.6619 24.3272 61.3453 27.0106 64.6555 27.0106Z" stroke="#010101" stroke-width="2" stroke-linecap="round" stroke-linejoin="round"/>
<path d="M34.0024 37.5C34.0024 34.7182 32.8973 32.0503 30.9303 30.0832C28.9632 28.1162 26.2953 27.0111 23.5135 27.0111C20.7317 27.0111 18.0641 28.1162 16.097 30.0832C14.13 32.0503 13.0249 34.7182 13.0249 37.5" stroke="#010101" stroke-width="2" stroke-linecap="round" stroke-linejoin="round"/>
<path d="M34.0024 70.8333C34.0024 68.0514 32.8973 65.3835 30.9303 63.4165C28.9632 61.4494 26.2953 60.3444 23.5135 60.3444C20.7317 60.3444 18.0641 61.4494 16.097 63.4165C14.13 65.3835 13.0249 68.0514 13.0249 70.8333" stroke="#010101" stroke-width="2" stroke-linecap="round" stroke-linejoin="round"/>
<path d="M72.0721 30.0832C70.1051 28.1162 67.4372 27.0111 64.6553 27.0111C61.8735 27.0111 59.2059 28.1162 57.2389 30.0832C55.2718 32.0503 54.1667 34.7182 54.1667 37.5" stroke="#010101" stroke-width="2" stroke-linecap="round" stroke-linejoin="round"/>
<path d="M83.3334 24.9998V8.34153C83.3334 6.03573 81.4642 4.1665 79.1584 4.1665H8.34177C6.03597 4.1665 4.16675 6.03572 4.16675 8.34152V66.6581C4.16675 68.9639 6.03597 70.8332 8.34177 70.8332H54.1667" stroke="#010101" stroke-width="2" stroke-linecap="round"/>
<path d="M43.75 4.1665V70.8332" stroke="#010101" stroke-width="2"/>
<path d="M4.16675 37.5H62.5001" stroke="#010101" stroke-width="2" stroke-linecap="round"/>
</svg>
