<svg width="411" height="969" viewBox="0 0 411 969" fill="none" xmlns="http://www.w3.org/2000/svg">
<g opacity="0.5">
<path d="M768.058 471.881C752.138 461.9 743.986 449.912 751.084 432.158C775.169 372.248 849.733 322.405 837.586 256.673C831.294 222.925 799.215 193.251 752.727 170.487C532.808 63.1372 319.902 108.109 254.984 139.196C188.451 171.041 220.929 233.355 253.661 273.764C293.959 323.563 345.556 373.234 349.529 427.961C353.713 485.745 380.798 617.379 421.727 674.626C450.605 715.016 524.029 771.423 599.996 778.292C675.963 785.161 752.513 744.367 811.177 719.367C869.841 694.367 1106.26 812.652 1134.9 774.262C1173.42 722.638 1095.13 658.398 1038.78 617.25C981.645 575.537 915.015 538.058 842.323 504.712C815.379 492.421 786.515 483.487 768.058 471.881Z" stroke="#1D0FBF" stroke-opacity="0.2" stroke-width="3"/>
<path d="M245.767 129.714C174.914 163.618 209.615 230.059 244.383 273.107C287.198 326.161 342.34 379.098 346.421 437.432C350.829 498.999 365.374 625.852 409.027 686.863C439.784 729.959 517.875 784.808 598.9 792.138C671.312 798.689 744.005 762.735 801.436 740.344C860.613 717.29 1074.87 818.777 1106.97 782.599C1151.28 732.502 1091.8 669.566 1047.58 626.319C1003.23 582.897 946.367 543.269 880.947 507.629C856.701 494.434 830.285 484.326 812.566 471.968C797.338 461.477 788.783 449.29 792.83 432.004C798.995 405.96 811.387 381.629 821.97 357.462C831.044 336.854 838.631 316.275 839.016 294.471C839.225 283.898 837.127 272.953 832.777 261.311C820.784 229.683 786.939 200.923 738.843 177.359C667.358 142.484 596.73 120.577 530.573 108.763C406.614 86.5467 295.921 105.68 245.767 129.714Z" stroke="#1D0FBF" stroke-opacity="0.2" stroke-width="3"/>
<path d="M236.391 120.239C161.226 156.2 197.998 226.753 234.946 272.452C280.418 328.772 338.808 384.948 343.287 446.915C347.92 512.261 349.927 634.416 396.154 699.176C428.8 744.896 511.682 798.282 597.464 806.047C666.469 812.293 735.322 781.096 791.359 761.379C851.192 740.283 1043.45 825.075 1078.58 790.989C1128.82 742.429 1087.81 680.851 1055.84 635.52C1023.97 590.445 977.309 548.628 919.153 510.696C897.732 496.691 873.763 485.41 856.648 472.205C842.128 461.123 833.037 448.645 834.024 431.907C835.55 406.107 840.338 381.998 842.985 358.27C845.292 338.205 846.201 318.505 841.241 297.618C838.815 287.713 834.112 277.273 827.464 266.083C810.202 236.695 774.024 208.713 724.616 184.377C655.272 150.275 586.659 125.596 520.655 109.772C406.022 82.1582 293.458 92.9002 236.391 120.239Z" stroke="#1D0FBF" stroke-opacity="0.2" stroke-width="3"/>
<path d="M227.008 110.783C147.522 148.882 186.377 223.466 225.342 271.882C273.47 331.468 335.235 390.976 339.835 456.467C344.838 525.606 334.194 642.974 382.991 711.483C417.526 759.827 505.046 811.738 595.872 819.963C661.33 825.891 726.627 799.555 781.287 782.43C841.763 763.371 1012.09 831.315 1050.36 799.413C1106.67 752.404 1083.96 692.248 1064.25 644.673C1044.98 597.958 1008.36 553.939 957.472 513.634C938.728 498.806 917.346 486.366 900.822 472.396C887.007 460.723 877.368 448.034 875.443 431.857C872.337 406.301 869.532 382.414 864.269 359.042C859.802 339.599 854.203 320.71 843.76 300.726C838.863 291.42 831.53 281.647 822.616 270.746C800.237 243.609 761.729 216.406 710.864 191.284C643.482 158.101 576.998 130.827 511.055 110.658C405.288 78.5124 290.98 80.1411 227.008 110.783Z" stroke="#1D0FBF" stroke-opacity="0.2" stroke-width="3"/>
<path d="M217.63 101.343C133.837 141.5 174.762 220.196 215.904 271.264C266.528 334.184 331.697 396.863 336.696 465.987C341.923 538.905 318.776 651.588 370.304 723.779C406.713 774.827 499.034 825.199 594.744 833.953C656.667 839.563 718.548 818.177 771.574 803.455C832.829 786.525 981.246 837.713 1022.57 807.737C1085.23 762.3 1080.34 703.606 1073.02 653.798C1066.01 605.578 1039.58 559.289 995.929 516.691C980.001 501.055 961.057 487.442 945.12 472.707C931.995 460.524 921.821 447.541 916.857 431.831C908.847 406.41 898.868 382.944 885.557 359.914C874.632 341.039 862.241 322.933 846.146 303.999C838.781 295.292 828.835 286.104 817.483 275.64C790.298 250.697 749.008 224.312 696.829 198.417C631.416 166.072 566.982 136.605 501.137 111.851C404.332 75.3495 288.663 67.3306 217.63 101.343Z" stroke="#1D0FBF" stroke-opacity="0.2" stroke-width="3"/>
<path d="M208.267 91.9163C120.156 134.134 163.156 216.947 206.48 270.667C259.767 336.857 328.335 402.791 333.455 475.444C338.908 552.146 303.134 660.058 357.372 736.096C395.674 789.771 492.647 838.674 593.414 847.889C651.814 853.182 710.295 836.744 761.684 824.502C823.872 809.713 950.446 844.072 994.501 816.154C1063.65 772.381 1076.14 715.024 1081.48 663.008C1086.58 613.266 1070.46 564.718 1034.07 519.665C1020.79 503.286 1004.44 488.432 989.242 472.864C976.804 460.17 965.948 446.881 958.225 431.743C945.299 406.536 928.34 383.26 906.814 360.719C889.421 342.49 870.534 325.192 848.674 307.133C838.987 299.036 826.588 290.365 812.653 280.325C780.967 257.519 736.717 232.098 682.939 205.321C619.481 173.812 556.591 142.436 491.194 112.719C402.894 72.6414 286.205 54.6006 208.267 91.9163Z" stroke="#1D0FBF" stroke-opacity="0.2" stroke-width="3"/>
<path d="M199.088 82.5971C106.633 126.88 151.736 213.737 197.11 270.102C253.076 339.569 324.918 408.751 330.44 485.047C336.265 565.555 287.861 668.709 344.693 748.507C384.901 804.815 486.688 852.349 592.265 861.918C647.311 866.908 702.252 855.481 752.037 845.639C815.164 833.068 920.094 850.618 966.909 824.674C1042.7 782.654 1072.44 726.452 1090.45 672.221C1107.51 620.859 1101.85 570.061 1072.8 522.722C1062.18 505.518 1048.25 489.49 1033.79 473.167C1022.04 459.88 1010.49 446.364 1000 431.797C982.017 406.788 958.351 383.807 928.49 361.578C904.64 343.912 879.123 327.326 851.61 310.313C839.453 302.813 824.6 294.658 808.064 285.12C772.041 264.301 724.513 239.895 669.41 212.261C607.884 181.583 546.038 148.497 481.677 113.707C400.945 70.1321 283.824 41.8798 199.088 82.5971Z" stroke="#1D0FBF" stroke-opacity="0.2" stroke-width="3"/>
<path d="M189.812 73.1904C92.9801 119.622 140.326 210.622 187.905 269.65C246.561 342.397 321.837 414.845 327.47 494.763C333.524 579.067 272.611 677.564 332.195 761.141C374.156 820.152 480.805 866.158 591.489 876.19C643.045 880.862 694.72 874.636 742.937 867.029C807.134 856.851 890.308 857.499 939.904 833.446C1022.32 793.337 1069.2 738.113 1099.86 681.746C1128.75 628.746 1133.52 575.775 1111.84 526.067C1103.88 508.037 1092.37 490.834 1078.62 473.755C1067.42 459.942 1055.17 446.118 1041.94 432.039C1018.86 407.388 988.394 384.365 950.295 362.701C920.144 345.531 887.978 329.736 854.647 313.836C840.164 306.945 822.867 299.225 803.581 290.176C763.23 271.261 712.4 247.951 655.948 219.537C596.371 189.528 534.93 154.92 472.218 114.864C398.603 67.7502 281.492 29.163 189.812 73.1904Z" stroke="#1D0FBF" stroke-opacity="0.2" stroke-width="3"/>
<path d="M857.844 316.97C772.472 284.622 614.118 229.5 462.817 115.948C395.555 65.3885 279.329 16.4623 180.547 63.7889C79.3407 112.291 128.791 207.424 178.435 269.103C239.643 345.12 318.362 420.838 324.398 504.407C330.827 592.525 257.264 686.273 319.461 773.62C363.34 835.269 474.85 879.83 590.511 890.311C706.171 900.792 823.117 880.051 912.452 841.959C1001.8 803.786 1065.41 749.416 1109.02 690.937C1197.43 572.2 1165.81 451.938 972.133 363.424C935.674 346.748 896.853 331.744 857.844 316.97Z" stroke="#1D0FBF" stroke-opacity="0.2" stroke-width="3"/>
</g>
</svg>
