<svg width="814" height="921" viewBox="0 0 814 921" fill="none" xmlns="http://www.w3.org/2000/svg">
<path d="M768.058 447.829C752.138 437.848 743.986 425.86 751.085 408.105C775.169 348.195 849.733 298.352 837.586 232.62C831.294 198.872 799.215 169.199 752.727 146.435C532.808 39.0849 319.902 84.057 254.984 115.144C188.451 146.988 220.93 209.303 253.661 249.712C293.959 299.511 345.556 349.181 349.529 403.908C353.713 461.693 380.798 593.327 421.727 650.574C450.605 690.963 524.029 747.371 599.996 754.24C675.963 761.109 752.513 720.315 811.177 695.315C869.841 670.315 1106.26 788.6 1134.9 750.209C1173.42 698.585 1095.13 634.346 1038.78 593.198C981.645 551.485 915.015 514.006 842.323 480.66C815.379 468.369 786.515 459.435 768.058 447.829Z" stroke="#1D0FBF" stroke-opacity="0.2" stroke-width="3"/>
<path d="M245.767 105.662C174.914 139.565 209.615 206.007 244.383 249.055C287.198 302.108 342.34 355.046 346.421 413.38C350.829 474.947 365.374 601.799 409.027 662.811C439.784 705.906 517.875 760.756 598.9 768.086C671.312 774.637 744.005 738.683 801.436 716.292C860.613 693.237 1074.87 794.725 1106.97 758.547C1151.28 708.449 1091.8 645.513 1047.58 602.267C1003.23 558.845 946.367 519.217 880.947 483.577C856.701 470.382 830.285 460.274 812.566 447.915C797.338 437.424 788.783 425.238 792.83 407.952C798.995 381.908 811.387 357.576 821.97 333.41C831.044 312.802 838.631 292.223 839.016 270.418C839.225 259.846 837.127 248.9 832.777 237.259C820.784 205.631 786.939 176.871 738.843 153.307C667.358 118.432 596.73 96.525 530.573 84.7106C406.614 62.4944 295.921 81.6273 245.767 105.662Z" stroke="#1D0FBF" stroke-opacity="0.2" stroke-width="3"/>
<path d="M236.391 96.187C161.226 132.148 197.998 202.701 234.946 248.4C280.418 304.72 338.808 360.896 343.287 422.863C347.92 488.209 349.927 610.364 396.154 675.124C428.8 720.844 511.682 774.23 597.464 781.995C666.469 788.241 735.322 757.044 791.359 737.327C851.192 716.231 1043.45 801.023 1078.58 766.937C1128.82 718.377 1087.81 656.799 1055.84 611.468C1023.97 566.393 977.309 524.576 919.153 486.644C897.732 472.639 873.763 461.358 856.648 448.153C842.128 437.071 833.037 424.593 834.024 407.855C835.55 382.055 840.338 357.946 842.985 334.218C845.292 314.153 846.201 294.453 841.241 273.566C838.815 263.661 834.112 253.221 827.464 242.031C810.202 212.643 774.024 184.661 724.616 160.325C655.272 126.223 586.659 101.544 520.655 85.7195C406.022 58.1062 293.458 68.8482 236.391 96.187Z" stroke="#1D0FBF" stroke-opacity="0.2" stroke-width="3"/>
<path d="M227.008 86.7306C147.523 124.83 186.378 199.414 225.342 247.83C273.47 307.416 335.235 366.924 339.835 432.415C344.838 501.553 334.194 618.922 382.991 687.431C417.526 735.774 505.046 787.685 595.872 795.911C661.33 801.839 726.627 775.502 781.287 758.378C841.763 739.319 1012.09 807.263 1050.36 775.361C1106.67 728.351 1083.96 668.196 1064.25 620.62C1044.98 573.906 1008.36 529.887 957.472 489.581C938.728 474.754 917.346 462.314 900.822 448.344C887.007 436.671 877.368 423.981 875.443 407.805C872.337 382.249 869.532 358.361 864.269 334.989C859.802 315.547 854.203 296.658 843.76 276.674C838.863 267.368 831.53 257.595 822.616 246.694C800.237 219.557 761.729 192.354 710.864 167.232C643.482 134.049 576.998 106.774 511.055 86.6056C405.288 54.4601 290.98 56.0889 227.008 86.7306Z" stroke="#1D0FBF" stroke-opacity="0.2" stroke-width="3"/>
<path d="M217.63 77.2903C133.837 117.448 174.762 196.144 215.904 247.211C266.528 310.132 331.698 372.811 336.696 441.935C341.923 514.853 318.776 627.536 370.304 699.727C406.713 750.775 499.034 801.147 594.745 809.9C656.667 815.511 718.548 794.125 771.575 779.403C832.829 762.473 981.246 813.66 1022.57 783.684C1085.23 738.248 1080.34 679.554 1073.02 629.746C1066.01 581.526 1039.58 535.237 995.929 492.639C980.001 477.002 961.057 463.39 945.12 448.655C931.995 436.471 921.821 423.489 916.858 407.779C908.847 382.358 898.868 358.892 885.557 335.862C874.632 316.987 862.241 298.881 846.146 279.947C838.781 271.239 828.835 262.052 817.483 251.588C790.298 226.645 749.008 200.26 696.829 174.365C631.416 142.02 566.982 112.553 501.137 87.7992C404.332 51.2973 288.663 43.2784 217.63 77.2903Z" stroke="#1D0FBF" stroke-opacity="0.2" stroke-width="3"/>
<path d="M208.267 67.8643C120.156 110.082 163.156 192.895 206.48 246.615C259.767 312.805 328.335 378.739 333.455 451.392C338.908 528.094 303.134 636.006 357.372 712.044C395.674 765.719 492.647 814.622 593.414 823.837C651.814 829.13 710.295 812.692 761.684 800.45C823.872 785.661 950.446 820.02 994.501 792.102C1063.65 748.329 1076.14 690.972 1081.48 638.956C1086.58 589.214 1070.46 540.666 1034.07 495.613C1020.79 479.234 1004.44 464.38 989.242 448.812C976.804 436.118 965.948 422.829 958.225 407.691C945.299 382.484 928.34 359.208 906.814 336.667C889.421 318.438 870.534 301.14 848.674 283.081C838.987 274.984 826.588 266.313 812.653 256.273C780.967 233.467 736.717 208.046 682.939 181.269C619.481 149.76 556.591 118.384 491.194 88.6671C402.894 48.5894 286.205 30.5486 208.267 67.8643Z" stroke="#1D0FBF" stroke-opacity="0.2" stroke-width="3"/>
<path d="M199.088 58.5449C106.632 102.828 151.735 189.684 197.11 246.05C253.076 315.516 324.918 384.699 330.44 460.995C336.265 541.502 287.861 644.656 344.693 724.455C384.901 780.762 486.688 828.296 592.265 837.866C647.311 842.855 702.252 831.429 752.037 821.586C815.164 809.016 920.094 826.565 966.909 800.622C1042.7 758.601 1072.44 702.399 1090.45 648.169C1107.51 596.807 1101.85 546.009 1072.8 498.67C1062.18 481.465 1048.25 465.438 1033.79 449.115C1022.04 435.828 1010.49 422.312 1000 407.745C982.017 382.736 958.351 359.755 928.49 337.525C904.64 319.86 879.123 303.274 851.61 286.261C839.453 278.761 824.6 270.606 808.064 261.068C772.041 240.249 724.513 215.843 669.41 188.208C607.884 157.531 546.038 124.445 481.677 89.6546C400.945 46.0798 283.824 17.8276 199.088 58.5449Z" stroke="#1D0FBF" stroke-opacity="0.2" stroke-width="3"/>
<path d="M189.812 49.1382C92.9801 95.5699 140.326 186.569 187.905 245.597C246.561 318.344 321.837 390.793 327.47 470.711C333.524 555.015 272.611 653.511 332.195 737.089C374.156 796.099 480.805 842.106 591.489 852.138C643.045 856.81 694.72 850.583 742.937 842.977C807.134 832.799 890.308 833.446 939.904 809.394C1022.32 769.285 1069.2 714.06 1099.86 657.694C1128.75 604.694 1133.52 551.723 1111.84 502.015C1103.88 483.985 1092.37 466.781 1078.62 449.703C1067.42 435.89 1055.17 422.066 1041.94 407.987C1018.86 383.336 988.394 360.313 950.295 338.649C920.144 321.478 887.978 305.684 854.647 289.784C840.164 282.893 822.867 275.173 803.581 266.124C763.23 247.209 712.4 223.899 655.948 195.485C596.371 165.475 534.93 130.867 472.218 90.812C398.603 43.6979 281.492 5.11071 189.812 49.1382Z" stroke="#1D0FBF" stroke-opacity="0.2" stroke-width="3"/>
<path d="M857.844 292.918C772.472 260.57 614.118 205.447 462.817 91.8961C395.555 41.3362 279.329 -7.5899 180.547 39.7367C79.3407 88.2383 128.791 183.372 178.435 245.051C239.643 321.068 318.362 396.786 324.398 480.355C330.827 568.472 257.264 662.221 319.461 749.567C363.34 811.216 474.85 855.777 590.511 866.258C706.171 876.739 823.117 855.998 912.452 817.906C1001.8 779.734 1065.41 725.364 1109.02 666.884C1197.43 548.147 1165.81 427.886 972.133 339.372C935.674 322.696 896.853 307.692 857.844 292.918Z" stroke="#1D0FBF" stroke-opacity="0.2" stroke-width="3"/>
</svg>
