<svg width="481" height="920" viewBox="0 0 481 920" fill="none" xmlns="http://www.w3.org/2000/svg">
<path d="M-2.94192 447.095C-18.8624 437.114 -27.0137 425.126 -19.9155 407.371C4.16873 347.461 78.7334 297.618 66.5855 231.886C60.2942 198.138 28.2154 168.464 -18.2733 145.7C-238.192 38.3508 -451.098 83.3228 -516.016 114.41C-582.549 146.254 -550.071 208.568 -517.339 248.978C-477.041 298.776 -425.444 348.447 -421.471 403.174C-417.287 460.959 -390.202 592.593 -349.273 649.84C-320.395 690.229 -246.971 746.637 -171.004 753.506C-95.0374 760.375 -18.4871 719.581 40.1771 694.581C98.8413 669.58 335.256 787.866 363.903 749.475C402.422 697.851 324.129 633.612 267.783 592.464C210.645 550.751 144.015 513.272 71.3234 479.926C44.3792 467.635 15.5149 458.701 -2.94192 447.095Z" stroke="#1D0FBF" stroke-opacity="0.2" stroke-width="3"/>
<path d="M-525.233 104.928C-596.086 138.831 -561.386 205.273 -526.617 248.321C-483.802 301.374 -428.66 354.312 -424.579 412.646C-420.171 474.212 -405.626 601.065 -361.973 662.077C-331.216 705.172 -253.125 760.021 -172.1 767.352C-99.688 773.902 -26.995 737.949 30.4357 715.558C89.613 692.503 303.872 793.991 335.972 757.813C380.283 707.715 320.801 644.779 276.576 601.533C232.234 558.111 175.367 518.483 109.947 482.843C85.7005 469.647 59.2849 459.54 41.5654 447.181C26.3384 436.69 17.7829 424.504 21.8302 407.217C27.9951 381.174 40.3868 356.842 50.9702 332.676C60.0444 312.068 67.6306 291.489 68.0157 269.684C68.225 259.112 66.1266 248.166 61.7768 236.525C49.7843 204.897 15.9389 176.136 -32.1573 152.573C-103.642 117.698 -174.27 95.7908 -240.427 83.9764C-364.386 61.7603 -475.079 80.8931 -525.233 104.928Z" stroke="#1D0FBF" stroke-opacity="0.2" stroke-width="3"/>
<path d="M-534.609 95.4529C-609.774 131.414 -573.002 201.967 -536.054 247.666C-490.582 303.986 -432.192 360.162 -427.713 422.129C-423.08 487.475 -421.073 609.63 -374.846 674.39C-342.2 720.11 -259.318 773.496 -173.536 781.261C-104.531 787.507 -35.6785 756.31 20.3586 736.593C80.1924 715.497 272.453 800.289 307.577 766.203C357.816 717.643 316.815 656.064 284.841 610.734C252.972 565.659 206.309 523.842 148.153 485.909C126.732 471.904 102.763 460.624 85.6481 447.419C71.128 436.337 62.0373 423.859 63.0236 407.121C64.5496 381.321 69.3379 357.212 71.9853 333.484C74.2916 313.419 75.2006 293.719 70.2406 272.832C67.8152 262.927 63.1117 252.487 56.4643 241.297C39.2024 211.909 3.02425 183.927 -46.3841 159.591C-115.728 125.489 -184.341 100.81 -250.345 84.9854C-364.978 57.3721 -477.542 68.114 -534.609 95.4529Z" stroke="#1D0FBF" stroke-opacity="0.2" stroke-width="3"/>
<path d="M-543.992 85.9962C-623.478 124.096 -584.623 198.679 -545.658 247.096C-497.53 306.682 -435.765 366.19 -431.165 431.681C-426.162 500.819 -436.806 618.187 -388.009 686.697C-353.474 735.04 -265.954 786.951 -175.128 795.176C-109.67 801.105 -44.3735 774.768 10.2869 757.644C70.763 738.584 241.087 806.529 279.364 774.627C335.669 727.617 312.963 667.461 293.251 619.886C273.982 573.171 237.362 529.152 186.472 488.847C167.728 474.02 146.346 461.579 129.822 447.61C116.007 435.937 106.368 423.247 104.443 407.071C101.337 381.515 98.5322 357.627 93.2686 334.255C88.8024 314.812 83.2032 295.924 72.7597 275.94C67.8628 266.633 60.5298 256.861 51.6159 245.96C29.2373 218.822 -9.27113 191.619 -60.1364 166.497C-127.518 133.315 -194.002 106.04 -259.945 85.8713C-365.712 53.7257 -480.02 55.3545 -543.992 85.9962Z" stroke="#1D0FBF" stroke-opacity="0.2" stroke-width="3"/>
<path d="M-553.37 76.5564C-637.163 116.714 -596.238 195.41 -555.096 246.477C-504.472 309.398 -439.303 372.077 -434.304 441.201C-429.077 514.119 -452.224 626.802 -400.696 698.993C-364.287 750.041 -271.966 800.413 -176.256 809.166C-114.333 814.777 -52.4521 793.391 0.574471 778.669C61.8288 761.739 210.246 812.926 251.57 782.95C314.229 737.514 309.341 678.82 302.019 629.012C295.013 580.792 268.58 534.503 224.929 491.905C209.001 476.269 190.057 462.656 174.12 447.921C160.995 435.738 150.821 422.755 145.857 407.045C137.847 381.624 127.868 358.158 114.557 335.128C103.632 316.253 91.2412 298.147 75.1464 279.213C67.781 270.506 57.8351 261.318 46.4832 250.854C19.2978 225.911 -21.9923 199.526 -74.1713 173.631C-139.584 141.286 -204.018 111.819 -269.863 87.0653C-366.668 50.5634 -482.337 42.5445 -553.37 76.5564Z" stroke="#1D0FBF" stroke-opacity="0.2" stroke-width="3"/>
<path d="M-562.733 67.1302C-650.844 109.348 -607.844 192.161 -564.52 245.881C-511.233 312.071 -442.665 378.005 -437.545 450.658C-432.092 527.36 -467.866 635.272 -413.629 711.31C-375.326 764.985 -278.353 813.888 -177.586 823.103C-119.186 828.396 -60.7054 811.957 -9.31583 799.716C52.872 784.927 179.445 819.285 223.501 791.368C292.651 747.595 305.138 690.238 310.483 638.221C315.58 588.48 299.464 539.932 263.065 494.879C249.788 478.499 233.435 463.646 218.242 448.077C205.804 435.384 194.948 422.095 187.225 406.957C174.299 381.75 157.34 358.474 135.814 335.933C118.421 317.704 99.5344 300.406 77.6737 282.347C67.9865 274.25 55.5884 265.579 41.6532 255.539C9.96658 232.733 -34.2834 207.312 -88.0612 180.535C-151.519 149.026 -214.409 117.65 -279.806 87.933C-368.106 47.8553 -484.795 29.8145 -562.733 67.1302Z" stroke="#1D0FBF" stroke-opacity="0.2" stroke-width="3"/>
<path d="M-571.912 57.8107C-664.368 102.094 -619.265 188.95 -573.89 245.316C-517.924 314.782 -446.082 383.965 -440.56 460.261C-434.735 540.768 -483.139 643.922 -426.307 723.721C-386.099 780.028 -284.312 827.562 -178.735 837.132C-123.689 842.121 -68.748 830.695 -18.9634 820.852C44.1643 808.281 149.094 825.831 195.909 799.887C271.7 757.867 301.439 701.665 319.446 647.435C336.511 596.072 330.846 545.275 301.801 497.936C291.183 480.731 277.255 464.703 262.786 448.38C251.044 435.094 239.489 421.578 229.005 407.011C211.017 382.002 187.351 359.021 157.49 336.791C133.64 319.126 108.123 302.54 80.6099 285.527C68.4532 278.026 53.5999 269.872 37.064 260.334C1.04134 239.514 -46.4872 215.109 -101.59 187.474C-163.116 156.796 -224.963 123.711 -289.323 88.9205C-370.055 45.3457 -487.176 17.0935 -571.912 57.8107Z" stroke="#1D0FBF" stroke-opacity="0.2" stroke-width="3"/>
<path d="M-581.188 48.4038C-678.02 94.8355 -630.674 185.835 -583.095 244.863C-524.439 317.61 -449.163 390.058 -443.53 469.976C-437.476 554.28 -498.389 652.777 -438.805 736.354C-396.844 795.365 -290.195 841.371 -179.511 851.403C-127.955 856.076 -76.2798 849.849 -28.0627 842.242C36.1342 832.064 119.307 832.712 168.904 808.66C251.323 768.551 298.203 713.326 328.861 656.959C357.751 603.96 362.522 550.989 340.838 501.281C332.878 483.25 321.371 466.047 307.624 448.969C296.416 435.156 284.174 421.331 270.941 407.253C247.859 382.602 217.394 359.579 179.295 337.914C149.144 320.744 116.978 304.95 83.6466 289.05C69.1638 282.159 51.8665 274.439 32.5812 265.39C-7.77024 246.475 -58.6005 223.164 -115.052 194.751C-174.629 164.741 -236.07 130.133 -298.782 90.0776C-372.397 42.9636 -489.508 4.37634 -581.188 48.4038Z" stroke="#1D0FBF" stroke-opacity="0.2" stroke-width="3"/>
<path d="M86.8442 292.184C1.47151 259.836 -156.882 204.713 -308.183 91.162C-375.445 40.6021 -491.671 -8.32403 -590.453 39.0025C-691.659 87.5041 -642.209 182.637 -592.565 244.317C-531.358 320.334 -452.638 396.051 -446.602 479.621C-440.173 567.738 -513.736 661.487 -451.539 748.833C-407.66 810.482 -296.15 855.043 -180.489 865.524C-64.8292 876.005 52.1169 855.264 141.452 817.172C230.8 778.999 294.409 724.63 338.017 666.15C426.43 547.413 394.814 427.152 201.132 338.637C164.674 321.961 125.853 306.958 86.8442 292.184Z" stroke="#1D0FBF" stroke-opacity="0.2" stroke-width="3"/>
</svg>
