<svg width="36" height="36" viewBox="0 0 36 36" fill="none" xmlns="http://www.w3.org/2000/svg">
<path fill-rule="evenodd" clip-rule="evenodd" d="M17.9999 35.9167C8.10482 35.9167 0.083252 27.8952 0.083252 18C0.083252 8.10494 8.10482 0.083374 17.9999 0.083374C27.8951 0.083374 35.9166 8.10494 35.9166 18C35.9166 27.8952 27.8951 35.9167 17.9999 35.9167ZM19.6666 11.3334C19.6666 10.4129 18.9204 9.66671 17.9999 9.66671C17.0794 9.66671 16.3333 10.4129 16.3333 11.3334V16.3334H11.3333C10.4128 16.3334 9.66658 17.0795 9.66658 18C9.66658 18.9205 10.4128 19.6667 11.3333 19.6667H16.3333V24.6667C16.3333 25.5872 17.0794 26.3334 17.9999 26.3334C18.9204 26.3334 19.6666 25.5872 19.6666 24.6667V19.6667H24.6666C25.5871 19.6667 26.3333 18.9205 26.3333 18C26.3333 17.0795 25.5871 16.3334 24.6666 16.3334H19.6666V11.3334Z" fill="#6A1FCC"/>
</svg>
