<svg width="100" height="100" viewBox="0 0 100 100" fill="none" xmlns="http://www.w3.org/2000/svg">
<path d="M80.9583 74.9545V33.7757L41.5818 11.4269" stroke="black" stroke-width="2" stroke-linecap="round" stroke-linejoin="round"/>
<path d="M81.0273 33.7393L97.4502 24.4182" stroke="black" stroke-width="2" stroke-linecap="round" stroke-linejoin="round"/>
<path d="M58.1384 3.28223V9.17301" stroke="black" stroke-width="2" stroke-linecap="round" stroke-linejoin="round"/>
<path d="M58.1384 17.4203V23.3111" stroke="black" stroke-width="2" stroke-linecap="round" stroke-linejoin="round"/>
<path d="M58.1384 31.5579V37.4486" stroke="black" stroke-width="2" stroke-linecap="round" stroke-linejoin="round"/>
<path d="M60.4644 2.58064L95.8091 22.6411C97.2842 23.4783 98.1956 25.0436 98.1956 26.7396V63.4738C98.1956 65.1701 97.2839 66.7355 95.8086 67.5726L83.2847 74.6786C81.8421 75.4971 80.0754 75.497 78.6329 74.6783L43.2877 54.6175C41.8127 53.7804 40.9013 52.2153 40.9012 50.5193L40.8992 13.789C40.8991 12.0928 41.8105 10.5275 43.2856 9.69025L55.8121 2.58064C57.2548 1.76181 59.0217 1.76181 60.4644 2.58064Z" stroke="black" stroke-width="2" stroke-linecap="round" stroke-linejoin="round"/>
<path d="M89.3597 61.6013L97.2346 65.9796" stroke="black" stroke-width="2" stroke-linecap="round" stroke-linejoin="round"/>
<path d="M82.2896 57.5892L75.2206 53.5771" stroke="black" stroke-width="2" stroke-linecap="round" stroke-linejoin="round"/>
<path d="M61.0831 45.4572L67.563 49.2305" stroke="black" stroke-width="2" stroke-linecap="round" stroke-linejoin="round"/>
<path d="M54.6033 45.3458L48.1234 49.1192" stroke="black" stroke-width="2" stroke-linecap="round" stroke-linejoin="round"/>
<path d="M92.5244 78.235C88.721 83.3184 80.5455 86.834 71.0734 86.834C57.9708 86.834 47.3491 80.1069 47.3491 71.8086C47.3491 69.8232 47.9571 67.9278 49.0616 66.1929" stroke="black" stroke-width="2" stroke-linecap="round" stroke-linejoin="round"/>
<path d="M3.70851 87.0914C3.21283 87.9512 2.94238 88.8796 2.94238 89.848C2.94238 94.2864 8.62353 97.8845 15.6316 97.8845C22.6396 97.8845 28.3208 94.2864 28.3208 89.848C28.3208 88.9192 28.072 88.0272 27.6143 87.1973" stroke="black" stroke-width="2" stroke-linecap="round" stroke-linejoin="round"/>
<path d="M15.6008 50.9823C20.0451 50.9823 23.648 47.3795 23.648 42.9352C23.648 38.4909 20.0451 34.8881 15.6008 34.8881C11.1565 34.8881 7.55371 38.4909 7.55371 42.9352C7.55371 47.3795 11.1565 50.9823 15.6008 50.9823Z" stroke="black" stroke-width="2" stroke-linecap="round" stroke-linejoin="round"/>
<path d="M29.6837 65.0644C29.6837 61.3295 28.2001 57.7476 25.5591 55.1066C22.9181 52.4656 19.3362 50.9819 15.6013 50.9819C11.8664 50.9819 8.28444 52.4656 5.64346 55.1066C3.00248 57.7476 1.5188 61.3295 1.5188 65.0644V71.0997H7.55414L9.56592 87.194H21.6366L23.6484 71.0997H29.6837V65.0644Z" stroke="black" stroke-width="2" stroke-linecap="round" stroke-linejoin="round"/>
</svg>
