<svg width="100" height="100" viewBox="0 0 100 100" fill="none" xmlns="http://www.w3.org/2000/svg">
<path d="M2.0874 27.1378C2.0874 22.5262 5.82584 18.7877 10.4374 18.7877H68.8878C73.4994 18.7877 77.2378 22.5262 77.2378 27.1378V70.9755C77.2378 75.5871 73.4994 79.3255 68.8878 79.3255H10.4374C5.82585 79.3255 2.0874 75.5871 2.0874 70.9755V27.1378Z" stroke="#010101" stroke-width="2"/>
<path d="M79.3254 79.3255C83.937 79.3255 87.6755 75.5871 87.6755 70.9755V27.1378C87.6755 22.5262 83.937 18.7877 79.3254 18.7877" stroke="#010101" stroke-width="2" stroke-linecap="round" stroke-linejoin="round"/>
<path d="M89.7632 79.3255C94.3748 79.3255 98.1132 75.5871 98.1132 70.9755V27.1378C98.1132 22.5262 94.3748 18.7877 89.7632 18.7877" stroke="#010101" stroke-width="2" stroke-linecap="round" stroke-linejoin="round"/>
<path d="M21.9188 87.6756C21.3423 87.6756 20.875 87.2083 20.875 86.6319C20.875 86.0554 21.3423 85.5881 21.9188 85.5881" stroke="#010101" stroke-width="2"/>
<path d="M21.9189 87.6756C22.4954 87.6756 22.9627 87.2083 22.9627 86.6319C22.9627 86.0554 22.4954 85.5881 21.9189 85.5881" stroke="#010101" stroke-width="2"/>
<path d="M30.2688 86.6318H59.494" stroke="#010101" stroke-width="2" stroke-linecap="round"/>
</svg>
