<svg width="100" height="100" viewBox="0 0 100 100" fill="none" xmlns="http://www.w3.org/2000/svg">
<path d="M28.6439 47.7722H38.2375M3.92966 89.9755L1.94706 95.9908C1.50197 97.3412 2.50777 98.7317 3.92966 98.7317H96.2707C97.6926 98.7317 98.6984 97.3412 98.2533 95.9908L96.2707 89.9755" stroke="#010101" stroke-width="2" stroke-linecap="round"/>
<path d="M62.1167 47.772H71.5181" stroke="#010101" stroke-width="2" stroke-linecap="round"/>
<path d="M15.6013 56.1903C20.0456 56.1903 23.6485 52.5875 23.6485 48.1432C23.6485 43.6989 20.0456 40.0961 15.6013 40.0961C11.157 40.0961 7.5542 43.6989 7.5542 48.1432C7.5542 52.5875 11.157 56.1903 15.6013 56.1903Z" stroke="#010101" stroke-width="2" stroke-linecap="round" stroke-linejoin="round"/>
<path d="M84.1336 56.1903C88.5779 56.1903 92.1807 52.5875 92.1807 48.1432C92.1807 43.6989 88.5779 40.0961 84.1336 40.0961C79.6892 40.0961 76.0864 43.6989 76.0864 48.1432C76.0864 52.5875 79.6892 56.1903 84.1336 56.1903Z" stroke="#010101" stroke-width="2" stroke-linecap="round" stroke-linejoin="round"/>
<path d="M49.9994 21.9446C53.9789 21.9446 57.2049 18.7186 57.2049 14.7392C57.2049 10.7597 53.9789 7.53369 49.9994 7.53369C46.0199 7.53369 42.7939 10.7597 42.7939 14.7392C42.7939 18.7186 46.0199 21.9446 49.9994 21.9446Z" stroke="#010101" stroke-width="2" stroke-linecap="round" stroke-linejoin="round"/>
<path d="M29.6837 70.2724C29.6837 66.5375 28.2001 62.9556 25.5591 60.3146C22.9181 57.6736 19.3362 56.1899 15.6013 56.1899C11.8664 56.1899 8.28444 57.6736 5.64346 60.3146C3.00248 62.9556 1.5188 66.5375 1.5188 70.2724V76.3078H7.55414L9.56592 92.402H21.6366L23.6484 76.3078H29.6837V70.2724Z" stroke="#010101" stroke-width="2" stroke-linecap="round" stroke-linejoin="round"/>
<path d="M98.4164 70.2724C98.4164 66.5375 96.9327 62.9556 94.2917 60.3146C91.6508 57.6736 88.0688 56.1899 84.3339 56.1899C80.599 56.1899 77.0171 57.6736 74.3761 60.3146C71.7352 62.9556 70.2515 66.5375 70.2515 70.2724V76.3078H76.2868L78.2986 92.402H90.3693L92.3811 76.3078H98.4164V70.2724Z" stroke="#010101" stroke-width="2" stroke-linecap="round" stroke-linejoin="round"/>
<path d="M62.6093 34.5537C62.6093 31.2094 61.2808 28.0021 58.916 25.6373C56.5513 23.2726 53.344 21.9441 49.9997 21.9441C46.6554 21.9441 43.4481 23.2726 41.0834 25.6373C38.7186 28.0021 37.3901 31.2094 37.3901 34.5537V39.9577H42.7942L44.5956 54.3687H55.4038L57.2052 39.9577H62.6093V34.5537Z" stroke="#010101" stroke-width="2" stroke-linecap="round" stroke-linejoin="round"/>
</svg>
