<svg width="100" height="100" viewBox="0 0 100 100" fill="none" xmlns="http://www.w3.org/2000/svg">
<path d="M59.8794 73.7919C67.674 73.7919 73.9927 67.4732 73.9927 59.6786C73.9927 51.884 67.674 45.5653 59.8794 45.5653C52.0849 45.5653 45.7661 51.884 45.7661 59.6786C45.7661 67.4732 52.0849 73.7919 59.8794 73.7919Z" stroke="#010101" stroke-width="2" stroke-linecap="round" stroke-linejoin="round"/>
<path d="M53.3078 47.1875L41.6559 26.2095L26.0071 56.856H46.0517" stroke="#010101" stroke-width="2" stroke-linecap="round" stroke-linejoin="round"/>
<path d="M81.5111 81.0332L97.5133 97.0354" stroke="#010101" stroke-width="2" stroke-linecap="round" stroke-linejoin="round"/>
<path d="M18.4887 18.9668L2.48646 2.96463" stroke="#010101" stroke-width="2" stroke-linecap="round" stroke-linejoin="round"/>
<path d="M18.4887 81.0332L2.48646 97.0354" stroke="#010101" stroke-width="2" stroke-linecap="round" stroke-linejoin="round"/>
<path d="M81.5111 18.9668L97.5133 2.96463" stroke="#010101" stroke-width="2" stroke-linecap="round" stroke-linejoin="round"/>
<path d="M97.5137 70.4355L97.5137 29.5662" stroke="#010101" stroke-width="2" stroke-linecap="round" stroke-linejoin="round"/>
<path d="M27.9627 97.0356L72.5554 97.0357" stroke="#010101" stroke-width="2" stroke-linecap="round" stroke-linejoin="round"/>
<path d="M2.48633 70.4355L2.48634 29.5662" stroke="#010101" stroke-width="2" stroke-linecap="round" stroke-linejoin="round"/>
<path d="M27.9627 2.96423L72.5554 2.96425" stroke="#010101" stroke-width="2" stroke-linecap="round" stroke-linejoin="round"/>
<path d="M85.3789 97.0359H97.5123V84.9025" stroke="#010101" stroke-width="2" stroke-linecap="round" stroke-linejoin="round"/>
<path d="M14.6206 2.96399L2.48718 2.96399L2.48718 15.0974" stroke="#010101" stroke-width="2" stroke-linecap="round" stroke-linejoin="round"/>
<path d="M14.6206 97.0359H2.48718V84.9025" stroke="#010101" stroke-width="2" stroke-linecap="round" stroke-linejoin="round"/>
<path d="M85.3789 2.96399L97.5123 2.96399L97.5123 15.0974" stroke="#010101" stroke-width="2" stroke-linecap="round" stroke-linejoin="round"/>
</svg>
