<svg width="32" height="32" viewBox="0 0 32 32" fill="none" xmlns="http://www.w3.org/2000/svg">
<path d="M5.33325 10.6667C5.33325 6.89608 5.33325 5.00941 6.50525 3.83875C7.67592 2.66675 9.56259 2.66675 13.3333 2.66675H18.6666C22.4373 2.66675 24.3239 2.66675 25.4946 3.83875C26.6666 5.00941 26.6666 6.89608 26.6666 10.6667V21.3334C26.6666 25.1041 26.6666 26.9907 25.4946 28.1614C24.3239 29.3334 22.4373 29.3334 18.6666 29.3334H13.3333C9.56259 29.3334 7.67592 29.3334 6.50525 28.1614C5.33325 26.9907 5.33325 25.1041 5.33325 21.3334V10.6667Z" stroke="white" stroke-width="2"/>
<path d="M26.5306 21.3335H10.5306C9.29059 21.3335 8.67059 21.3335 8.16125 21.4695C7.483 21.6514 6.86458 22.0086 6.36816 22.5052C5.87173 23.0019 5.51481 23.6205 5.33325 24.2988" stroke="white" stroke-width="2"/>
<path d="M10.6665 9.3335H21.3332M10.6665 14.0002H17.3332" stroke="white" stroke-width="1.5" stroke-linecap="round"/>
</svg>
