<svg width="32" height="32" viewBox="0 0 32 32" fill="none" xmlns="http://www.w3.org/2000/svg">
<path d="M25.4634 21.5C26.1362 21.5 26.7813 21.2261 27.2571 20.7385C27.7328 20.2509 28 19.5896 28 18.9V4.6C28 3.91044 27.7328 3.24912 27.2571 2.76152C26.7813 2.27393 26.1362 2 25.4634 2H12.0956C12.5395 2.793 12.7805 3.69 12.7805 4.6H25.4634V18.9H14.0488V21.5M19.122 8.5V11.1H11.5122V28H8.97561V20.2H6.43902V28H3.90244V17.6H2V11.1C2 10.4104 2.26725 9.74912 2.74295 9.26152C3.21865 8.77393 3.86384 8.5 4.53659 8.5H19.122ZM10.2439 4.6C10.2439 5.28956 9.97666 5.95088 9.50095 6.43848C9.02525 6.92607 8.38006 7.2 7.70732 7.2C7.03457 7.2 6.38938 6.92607 5.91368 6.43848C5.43798 5.95088 5.17073 5.28956 5.17073 4.6C5.17073 3.91044 5.43798 3.24912 5.91368 2.76152C6.38938 2.27393 7.03457 2 7.70732 2C8.38006 2 9.02525 2.27393 9.50095 2.76152C9.97666 3.24912 10.2439 3.91044 10.2439 4.6Z" fill="white"/>
</svg>
