<svg width="18" height="20" viewBox="0 0 18 20" fill="none" xmlns="http://www.w3.org/2000/svg">
<path d="M13.9833 3.305C13.2427 2.45959 12.8346 1.37389 12.8349 0.25H9.48743V13.6833C9.46161 14.4103 9.1547 15.0988 8.63134 15.604C8.10797 16.1092 7.40899 16.3916 6.68159 16.3917C5.14326 16.3917 3.86493 15.135 3.86493 13.575C3.86493 11.7117 5.66326 10.3142 7.51576 10.8883V7.465C3.77826 6.96667 0.506592 9.87 0.506592 13.575C0.506592 17.1825 3.49659 19.75 6.67076 19.75C10.0724 19.75 12.8349 16.9875 12.8349 13.575V6.76083C14.1923 7.73567 15.8221 8.2587 17.4933 8.25583V4.90833C17.4933 4.90833 15.4566 5.00583 13.9833 3.305Z" fill="#300E5C"/>
</svg>
